<svg width="48" height="48" viewBox="0 0 48 48" fill="none" xmlns="http://www.w3.org/2000/svg">
<path fill-rule="evenodd" clip-rule="evenodd" d="M30 4C30.5304 4 31.0391 4.21071 31.4142 4.58579C31.7893 4.96086 32 5.46957 32 6V8H34C35.5913 8 37.1174 8.63214 38.2426 9.75736C39.3679 10.8826 40 12.4087 40 14V16H42C42.5304 16 43.0391 16.2107 43.4142 16.5858C43.7893 16.9609 44 17.4696 44 18C44 18.5304 43.7893 19.0391 43.4142 19.4142C43.0391 19.7893 42.5304 20 42 20H40V28H42C42.5304 28 43.0391 28.2107 43.4142 28.5858C43.7893 28.9609 44 29.4696 44 30C44 30.5304 43.7893 31.0391 43.4142 31.4142C43.0391 31.7893 42.5304 32 42 32H40V34C40 35.5913 39.3679 37.1174 38.2426 38.2426C37.1174 39.3679 35.5913 40 34 40H32V42C32 42.5304 31.7893 43.0391 31.4142 43.4142C31.0391 43.7893 30.5304 44 30 44C29.4696 44 28.9609 43.7893 28.5858 43.4142C28.2107 43.0391 28 42.5304 28 42V40H20V42C20 42.5304 19.7893 43.0391 19.4142 43.4142C19.0391 43.7893 18.5304 44 18 44C17.4696 44 16.9609 43.7893 16.5858 43.4142C16.2107 43.0391 16 42.5304 16 42V40H14C12.4087 40 10.8826 39.3679 9.75736 38.2426C8.63214 37.1174 8 35.5913 8 34V32H6C5.46957 32 4.96086 31.7893 4.58579 31.4142C4.21071 31.0391 4 30.5304 4 30C4 29.4696 4.21071 28.9609 4.58579 28.5858C4.96086 28.2107 5.46957 28 6 28H8V20H6C5.46957 20 4.96086 19.7893 4.58579 19.4142C4.21071 19.0391 4 18.5304 4 18C4 17.4696 4.21071 16.9609 4.58579 16.5858C4.96086 16.2107 5.46957 16 6 16H8V14C8 12.4087 8.63214 10.8826 9.75736 9.75736C10.8826 8.63214 12.4087 8 14 8H16V6C16 5.46957 16.2107 4.96086 16.5858 4.58579C16.9609 4.21071 17.4696 4 18 4C18.5304 4 19.0391 4.21071 19.4142 4.58579C19.7893 4.96086 20 5.46957 20 6V8H28V6C28 5.46957 28.2107 4.96086 28.5858 4.58579C28.9609 4.21071 29.4696 4 30 4ZM34 12H14C13.4696 12 12.9609 12.2107 12.5858 12.5858C12.2107 12.9609 12 13.4696 12 14V34C12 34.5304 12.2107 35.0391 12.5858 35.4142C12.9609 35.7893 13.4696 36 14 36H34C34.5304 36 35.0391 35.7893 35.4142 35.4142C35.7893 35.0391 36 34.5304 36 34V14C36 13.4696 35.7893 12.9609 35.4142 12.5858C35.0391 12.2107 34.5304 12 34 12ZM28 16C29.0092 15.9997 29.9811 16.3808 30.7211 17.067C31.4611 17.7532 31.9143 18.6937 31.99 19.7L32 20V28C32.0003 29.0092 31.6192 29.9811 30.933 30.7211C30.2468 31.4611 29.3063 31.9143 28.3 31.99L28 32H20C18.9908 32.0003 18.0189 31.6192 17.2789 30.933C16.5389 30.2468 16.0857 29.3063 16.01 28.3L16 28V20C15.9997 18.9908 16.3808 18.0189 17.067 17.2789C17.7532 16.5389 18.6937 16.0857 19.7 16.01L20 16H28ZM28 20H20V28H28V20Z" fill="#9AA2AD"/>
</svg>
