<svg width="16" height="16" viewBox="0 0 16 16" fill="none" xmlns="http://www.w3.org/2000/svg">
<path d="M13.3537 10.6466L8.35366 5.64665C8.30722 5.60016 8.25208 5.56328 8.19138 5.53812C8.13068 5.51295 8.06561 5.5 7.99991 5.5C7.9342 5.5 7.86913 5.51295 7.80844 5.53812C7.74774 5.56328 7.69259 5.60016 7.64616 5.64665L2.64616 10.6466C2.57615 10.7166 2.52847 10.8057 2.50914 10.9027C2.48982 10.9998 2.49972 11.1004 2.53759 11.1918C2.57547 11.2832 2.63962 11.3613 2.72191 11.4163C2.80421 11.4712 2.90096 11.5005 2.99991 11.5004H12.9999C13.0989 11.5005 13.1956 11.4712 13.2779 11.4163C13.3602 11.3613 13.4243 11.2832 13.4622 11.1918C13.5001 11.1004 13.51 10.9998 13.4907 10.9027C13.4713 10.8057 13.4237 10.7166 13.3537 10.6466Z" fill="#515E72"/>
</svg>
