<svg width="60" height="60" viewBox="0 0 60 60" fill="none" xmlns="http://www.w3.org/2000/svg">
<path d="M55.5006 44.0837L35.0045 8.48922C34.4923 7.61717 33.7611 6.8941 32.8834 6.3917C32.0057 5.8893 31.0119 5.625 30.0006 5.625C28.9892 5.625 27.9954 5.8893 27.1177 6.3917C26.24 6.8941 25.5088 7.61717 24.9967 8.48922L4.50056 44.0837C4.00775 44.9272 3.74805 45.8865 3.74805 46.8634C3.74805 47.8403 4.00775 48.7996 4.50056 49.6431C5.00618 50.5204 5.73612 51.2474 6.61547 51.7495C7.49482 52.2516 8.49193 52.5107 9.50447 52.5002H50.4967C51.5084 52.5098 52.5045 52.2504 53.383 51.7483C54.2614 51.2463 54.9906 50.5197 55.4959 49.6431C55.9894 48.8001 56.2499 47.841 56.2507 46.8641C56.2516 45.8872 55.9927 44.9276 55.5006 44.0837ZM28.1256 24.3752C28.1256 23.8779 28.3231 23.401 28.6747 23.0493C29.0264 22.6977 29.5033 22.5002 30.0006 22.5002C30.4978 22.5002 30.9748 22.6977 31.3264 23.0493C31.678 23.401 31.8756 23.8779 31.8756 24.3752V33.7502C31.8756 34.2474 31.678 34.7243 31.3264 35.076C30.9748 35.4276 30.4978 35.6252 30.0006 35.6252C29.5033 35.6252 29.0264 35.4276 28.6747 35.076C28.3231 34.7243 28.1256 34.2474 28.1256 33.7502V24.3752ZM30.0006 45.0002C29.4443 45.0002 28.9005 44.8352 28.438 44.5262C27.9755 44.2171 27.615 43.7779 27.4021 43.264C27.1893 42.75 27.1336 42.1845 27.2421 41.639C27.3506 41.0934 27.6185 40.5923 28.0118 40.1989C28.4052 39.8056 28.9063 39.5377 29.4519 39.4292C29.9974 39.3207 30.5629 39.3764 31.0769 39.5892C31.5908 39.8021 32.03 40.1626 32.3391 40.6251C32.6481 41.0876 32.8131 41.6314 32.8131 42.1877C32.8131 42.9336 32.5167 43.6489 31.9893 44.1764C31.4619 44.7038 30.7465 45.0002 30.0006 45.0002Z" fill="#E07272"/>
</svg>
