<svg width="24" height="25" viewBox="0 0 24 25" fill="none" xmlns="http://www.w3.org/2000/svg">
<path d="M21 11.75V13.25C21 13.4489 20.921 13.6397 20.7803 13.7803C20.6397 13.921 20.4489 14 20.25 14H3.75C3.55109 14 3.36032 13.921 3.21967 13.7803C3.07902 13.6397 3 13.4489 3 13.25V11.75C3 11.5511 3.07902 11.3603 3.21967 11.2197C3.36032 11.079 3.55109 11 3.75 11H20.25C20.4489 11 20.6397 11.079 20.7803 11.2197C20.921 11.3603 21 11.5511 21 11.75ZM20.25 17H3.75C3.55109 17 3.36032 17.079 3.21967 17.2197C3.07902 17.3603 3 17.5511 3 17.75V19.25C3 19.4489 3.07902 19.6397 3.21967 19.7803C3.36032 19.921 3.55109 20 3.75 20H20.25C20.4489 20 20.6397 19.921 20.7803 19.7803C20.921 19.6397 21 19.4489 21 19.25V17.75C21 17.5511 20.921 17.3603 20.7803 17.2197C20.6397 17.079 20.4489 17 20.25 17ZM20.25 5H3.75C3.55109 5 3.36032 5.07902 3.21967 5.21967C3.07902 5.36032 3 5.55109 3 5.75V7.25C3 7.44891 3.07902 7.63968 3.21967 7.78033C3.36032 7.92098 3.55109 8 3.75 8H20.25C20.4489 8 20.6397 7.92098 20.7803 7.78033C20.921 7.63968 21 7.44891 21 7.25V5.75C21 5.55109 20.921 5.36032 20.7803 5.21967C20.6397 5.07902 20.4489 5 20.25 5Z" fill="#9AA2AD"/>
</svg>
