<svg width="33" height="32" viewBox="0 0 33 32" fill="none" xmlns="http://www.w3.org/2000/svg">
<path d="M25.666 5H21.666C21.666 4.46957 21.4553 3.96086 21.0802 3.58579C20.7052 3.21071 20.1964 3 19.666 3H4.66602C4.13558 3 3.62687 3.21071 3.2518 3.58579C2.87673 3.96086 2.66602 4.46957 2.66602 5V15C2.66602 15.5304 2.87673 16.0391 3.2518 16.4142C3.62687 16.7893 4.13558 17 4.66602 17H5.66602V25C5.66602 25.5304 5.87673 26.0391 6.2518 26.4142C6.62687 26.7893 7.13558 27 7.66602 27H25.666C26.1964 27 26.7052 26.7893 27.0802 26.4142C27.4553 26.0391 27.666 25.5304 27.666 25V7C27.666 6.46957 27.4553 5.96086 27.0802 5.58579C26.7052 5.21071 26.1964 5 25.666 5ZM13.9585 7.7075C13.7709 7.51986 13.6655 7.26536 13.6655 7C13.6655 6.73464 13.7709 6.48014 13.9585 6.2925C14.1462 6.10486 14.4007 5.99944 14.666 5.99944C14.9314 5.99944 15.1859 6.10486 15.3735 6.2925L18.3735 9.2925C18.4665 9.38537 18.5403 9.49566 18.5906 9.61706C18.6409 9.73846 18.6668 9.86858 18.6668 10C18.6668 10.1314 18.6409 10.2615 18.5906 10.3829C18.5403 10.5043 18.4665 10.6146 18.3735 10.7075L15.3735 13.7075C15.1859 13.8951 14.9314 14.0006 14.666 14.0006C14.4007 14.0006 14.1462 13.8951 13.9585 13.7075C13.7709 13.5199 13.6655 13.2654 13.6655 13C13.6655 12.7346 13.7709 12.4801 13.9585 12.2925L16.2523 10L13.9585 7.7075ZM5.95852 10.7075C5.86554 10.6146 5.79178 10.5043 5.74146 10.3829C5.69113 10.2615 5.66523 10.1314 5.66523 10C5.66523 9.86858 5.69113 9.73846 5.74146 9.61706C5.79178 9.49566 5.86554 9.38537 5.95852 9.2925L8.95852 6.2925C9.14616 6.10486 9.40065 5.99944 9.66602 5.99944C9.93138 5.99944 10.1859 6.10486 10.3735 6.2925C10.5612 6.48014 10.6666 6.73464 10.6666 7C10.6666 7.26536 10.5612 7.51986 10.3735 7.7075L8.07977 10L10.3735 12.2925C10.5612 12.4801 10.6666 12.7346 10.6666 13C10.6666 13.2654 10.5612 13.5199 10.3735 13.7075C10.1859 13.8951 9.93138 14.0006 9.66602 14.0006C9.40065 14.0006 9.14616 13.8951 8.95852 13.7075L5.95852 10.7075ZM25.666 25H7.66602V17H19.666C20.1964 17 20.7052 16.7893 21.0802 16.4142C21.4553 16.0391 21.666 15.5304 21.666 15V7H25.666V25Z" fill="#9AA2AD"/>
</svg>
