<svg width="24" height="24" viewBox="0 0 24 24" fill="none" xmlns="http://www.w3.org/2000/svg">
<path d="M5.05499 3.24557C4.98913 3.17132 4.90918 3.11089 4.81979 3.06777C4.7304 3.02465 4.63334 2.9997 4.53423 2.99437C4.43513 2.98904 4.33595 3.00343 4.24245 3.03671C4.14895 3.06999 4.06298 3.1215 3.98953 3.18825C3.91608 3.255 3.85661 3.33566 3.81457 3.42556C3.77252 3.51546 3.74874 3.61282 3.7446 3.71198C3.74045 3.81114 3.75603 3.91014 3.79043 4.00323C3.82483 4.09633 3.87737 4.18167 3.94499 4.25432L5.74874 6.239C2.34374 8.32869 0.879366 11.5499 0.814679 11.6962C0.772035 11.7921 0.75 11.8959 0.75 12.0009C0.75 12.1058 0.772035 12.2096 0.814679 12.3056C0.847491 12.3796 1.64155 14.1403 3.40687 15.9056C5.75905 18.2568 8.72999 19.4999 12 19.4999C13.6806 19.5095 15.3442 19.1635 16.8816 18.4846L18.9441 20.7543C19.0099 20.8286 19.0899 20.889 19.1793 20.9321C19.2686 20.9752 19.3657 21.0002 19.4648 21.0055C19.5639 21.0108 19.6631 20.9965 19.7566 20.9632C19.8501 20.9299 19.9361 20.8784 20.0095 20.8116C20.083 20.7449 20.1424 20.6642 20.1845 20.5743C20.2265 20.4844 20.2503 20.3871 20.2544 20.2879C20.2586 20.1887 20.243 20.0897 20.2086 19.9966C20.1742 19.9036 20.1217 19.8182 20.0541 19.7456L5.05499 3.24557ZM13.3987 14.654C12.8105 14.9635 12.136 15.0688 11.4814 14.9535C10.8268 14.8381 10.229 14.5086 9.78189 14.0167C9.33481 13.5248 9.06377 12.8983 9.01134 12.2356C8.9589 11.573 9.12803 10.9117 9.49218 10.3556L13.3987 14.654ZM23.1853 12.3056C23.1459 12.3937 22.1962 14.4965 20.0578 16.4118C19.9104 16.5441 19.7167 16.6127 19.519 16.6027C19.3212 16.5926 19.1354 16.5048 19.0022 16.3584L9.50624 5.91275C9.4154 5.81307 9.35312 5.69073 9.32596 5.55863C9.29879 5.42653 9.30776 5.28954 9.3519 5.1621C9.39604 5.03466 9.47373 4.92149 9.57679 4.83449C9.67984 4.74749 9.80445 4.68989 9.93749 4.66775C10.6192 4.55519 11.309 4.49906 12 4.49994C15.27 4.49994 18.2409 5.74307 20.5931 8.09525C22.3584 9.86057 23.1525 11.6221 23.1853 11.6962C23.2279 11.7921 23.25 11.8959 23.25 12.0009C23.25 12.1058 23.2279 12.2096 23.1853 12.3056Z" fill="#9AA2AD"/>
</svg>
