<svg width="48" height="48" viewBox="0 0 48 48" fill="none" xmlns="http://www.w3.org/2000/svg">
<path d="M36 22V25C42.38 25 46.18 32.1 42.66 37.42L40.48 35.24C42.12 31.92 39.7 28 36 28V31L31.5 26.5L36 22ZM36 44V41C29.62 41 25.82 33.9 29.34 28.58L31.52 30.76C29.88 34.08 32.3 38 36 38V35L40.5 39.5L36 44ZM38 6H36V2H32V6H16V2H12V6H10C8.93913 6 7.92172 6.42143 7.17157 7.17157C6.42143 7.92172 6 8.93913 6 10V38C6 39.0609 6.42143 40.0783 7.17157 40.8284C7.92172 41.5786 8.93913 42 10 42H28C26.7266 40.8955 25.7038 39.5317 25 38H10V16H38V21.18C39.42 21.4 40.78 21.88 42 22.62V10C42 8.93913 41.5786 7.92172 40.8284 7.17157C40.0783 6.42143 39.0609 6 38 6Z" fill="#9AA2AD"/>
</svg>
