<svg width="48" height="48" viewBox="0 0 48 48" fill="none" xmlns="http://www.w3.org/2000/svg">
<path d="M42 34V10H6V34H42ZM42 6C43.0609 6 44.0783 6.42143 44.8284 7.17157C45.5786 7.92172 46 8.93913 46 10V34C46 35.0609 45.5786 36.0783 44.8284 36.8284C44.0783 37.5786 43.0609 38 42 38H32V42H16V38H6C4.93913 38 3.92172 37.5786 3.17157 36.8284C2.42143 36.0783 2 35.0609 2 34V10C2 8.93913 2.42143 7.92172 3.17157 7.17157C3.92172 6.42143 4.93913 6 6 6H42ZM10 14H22V22H10V14ZM10 26H22V30H10V26ZM26 14H38V18H26V14ZM26 22H38V30H26V22Z" fill="#9AA2AD"/>
</svg>
