<svg width="48" height="48" viewBox="0 0 48 48" fill="none" xmlns="http://www.w3.org/2000/svg">
<path d="M12.917 14.5395C15.5906 11.3936 19.5439 9.375 24 9.375C32.0818 9.375 38.625 15.9182 38.625 24H43.5C43.5 13.2293 34.7707 4.5 24 4.5C18.1957 4.5 13.0084 7.04414 9.44355 11.066L4.5 6.12246V19.125H17.5025L12.917 14.5395ZM35.083 33.4605C32.4018 36.6064 28.4561 38.625 24 38.625C15.9182 38.625 9.375 32.0818 9.375 24H4.5C4.5 34.7707 13.2293 43.5 24 43.5C29.8043 43.5 34.9916 40.9559 38.5564 36.934L43.5 41.8775V28.875H30.4975L35.083 33.4605ZM20.7475 24C20.7475 25.7977 22.2023 27.2525 24 27.2525C25.7977 27.2525 27.2525 25.7977 27.2525 24C27.2525 22.2023 25.7977 20.7475 24 20.7475C22.2023 20.7475 20.7475 22.2023 20.7475 24Z" fill="#9AA2AD"/>
</svg>
