<svg width="33" height="32" viewBox="0 0 33 32" fill="none" xmlns="http://www.w3.org/2000/svg">
<path d="M29.081 9.17125L23.4948 3.58625C23.3091 3.40049 23.0886 3.25313 22.8459 3.15259C22.6032 3.05205 22.3431 3.00031 22.0804 3.00031C21.8177 3.00031 21.5576 3.05205 21.3149 3.15259C21.0722 3.25313 20.8517 3.40049 20.666 3.58625L5.25228 19C5.06575 19.185 4.91787 19.4053 4.81722 19.648C4.71658 19.8907 4.66519 20.151 4.66603 20.4138V26C4.66603 26.5304 4.87674 27.0391 5.25181 27.4142C5.62688 27.7893 6.13559 28 6.66603 28H27.666C27.9312 28 28.1856 27.8946 28.3731 27.7071C28.5607 27.5196 28.666 27.2652 28.666 27C28.666 26.7348 28.5607 26.4804 28.3731 26.2929C28.1856 26.1054 27.9312 26 27.666 26H15.081L29.081 12C29.2668 11.8143 29.4142 11.5938 29.5147 11.3511C29.6152 11.1084 29.667 10.8483 29.667 10.5856C29.667 10.3229 29.6152 10.0628 29.5147 9.82016C29.4142 9.57747 29.2668 9.35698 29.081 9.17125ZM24.666 13.5863L19.081 8L22.081 5L27.666 10.5863L24.666 13.5863Z" fill="#9AA2AD"/>
</svg>
