<svg width="150" height="51" viewBox="0 0 150 51" fill="none" xmlns="http://www.w3.org/2000/svg">
<path opacity="0.6" d="M1.93831 34.7472C4.42675 45.0172 17.9138 50.0216 33.5319 48.4405C53.5494 46.4195 78.7088 28.4505 79.6712 15.9258C80.4273 6.17826 66.2253 0.912663 43.7056 3.8273C21.8046 6.6732 -1.14131 22.0163 1.93831 34.7472Z" fill="#FBDA33"/>
<path opacity="0.6" d="M80.5786 27.8731C81.1285 17.3144 69.6349 8.6667 54.2231 5.71082C34.4668 1.93004 5.22418 11.9525 0.714736 23.6661C-2.79108 32.795 9.30742 41.8963 31.7171 45.5534C53.5219 49.1004 79.8912 40.9614 80.5786 27.8731Z" fill="#F7A92C"/>
<path opacity="0.6" d="M73.8694 43.2986C80.4961 34.8022 76.6603 26.567 63.9294 15.9395C47.6239 2.32874 19.1649 -3.69301 9.00495 4.81718C1.08593 11.4576 0.206044 23.2674 19.055 38.1155C37.3677 52.5513 67.6002 51.3277 73.8694 43.2986Z" fill="#FBDA33"/>
<path d="M102.631 13.0936V23.8036H100.156V19.4179H95.2892V23.8036H92.8145V13.0936H95.2892V17.3144H100.156V13.0936H102.631Z" fill="white"/>
<path d="M107.346 23.2674C106.453 22.7862 105.752 22.1263 105.257 21.2876C104.748 20.449 104.501 19.5004 104.501 18.4555C104.501 17.4106 104.748 16.462 105.257 15.6233C105.765 14.7847 106.453 14.1248 107.346 13.6436C108.24 13.1624 109.244 12.9287 110.357 12.9287C111.471 12.9287 112.461 13.1624 113.354 13.6436C114.248 14.1248 114.936 14.7847 115.444 15.6233C115.953 16.462 116.214 17.4106 116.214 18.4555C116.214 19.5004 115.953 20.449 115.444 21.2876C114.936 22.1263 114.234 22.7862 113.354 23.2674C112.461 23.7486 111.471 23.9823 110.357 23.9823C109.23 23.9823 108.24 23.7486 107.346 23.2674ZM112.062 21.4389C112.571 21.1501 112.969 20.7377 113.258 20.229C113.547 19.7066 113.698 19.1154 113.698 18.4555C113.698 17.7956 113.547 17.2044 113.258 16.682C112.969 16.1595 112.571 15.7608 112.062 15.4721C111.553 15.1834 110.976 15.0322 110.344 15.0322C109.711 15.0322 109.147 15.1834 108.625 15.4721C108.116 15.7608 107.718 16.1733 107.429 16.682C107.14 17.2044 106.989 17.7956 106.989 18.4555C106.989 19.1154 107.14 19.7066 107.429 20.229C107.718 20.7514 108.116 21.1501 108.625 21.4389C109.134 21.7276 109.711 21.8788 110.344 21.8788C110.976 21.8788 111.553 21.7276 112.062 21.4389Z" fill="white"/>
<path d="M127.886 13.0936V23.8036H125.852L120.517 17.3006V23.8036H118.07V13.0936H120.119L125.439 19.5966V13.0936H127.886Z" fill="white"/>
<path d="M138.706 21.8101V23.8036H130.416V13.0936H138.5V15.0872H132.877V17.4106H137.84V19.3354H132.877V21.8101H138.706Z" fill="white"/>
<path d="M145.718 20.009V23.8036H143.243V19.9815L139.105 13.1074H141.731L144.591 17.8643L147.45 13.1074H149.884L145.718 20.009Z" fill="white"/>
<path d="M94.973 38.5692C94.0931 38.1018 93.3919 37.4419 92.897 36.6032C92.3883 35.7646 92.1408 34.816 92.1408 33.7573C92.1408 32.6987 92.3883 31.7501 92.897 30.9114C93.4057 30.0728 94.0931 29.4129 94.973 28.9317C95.8529 28.4642 96.8428 28.2168 97.9426 28.2168C98.8638 28.2168 99.7024 28.3818 100.459 28.7117C101.201 29.0417 101.833 29.5091 102.342 30.114L100.747 31.5851C100.019 30.7465 99.125 30.334 98.0526 30.334C97.3927 30.334 96.8015 30.4852 96.2791 30.774C95.7566 31.0627 95.3579 31.4751 95.0692 31.9838C94.7805 32.5062 94.6293 33.0974 94.6293 33.7573C94.6293 34.4173 94.7805 35.0084 95.0692 35.5309C95.3579 36.0533 95.7704 36.452 96.2791 36.7407C96.7878 37.0294 97.3927 37.1807 98.0526 37.1807C99.125 37.1807 100.019 36.7545 100.747 35.9158L102.342 37.3869C101.833 38.0056 101.201 38.4867 100.445 38.803C99.6886 39.1329 98.85 39.2979 97.9289 39.2979C96.8428 39.2841 95.8529 39.0504 94.973 38.5692Z" fill="white"/>
<path d="M105.972 38.5692C105.078 38.088 104.377 37.4281 103.882 36.5895C103.373 35.7508 103.126 34.8022 103.126 33.7573C103.126 32.7125 103.373 31.7638 103.882 30.9252C104.391 30.0865 105.078 29.4266 105.972 28.9454C106.865 28.4642 107.869 28.2305 108.983 28.2305C110.096 28.2305 111.086 28.4642 111.98 28.9454C112.873 29.4266 113.561 30.0865 114.069 30.9252C114.578 31.7638 114.839 32.7125 114.839 33.7573C114.839 34.8022 114.578 35.7508 114.069 36.5895C113.561 37.4281 112.86 38.088 111.98 38.5692C111.086 39.0504 110.096 39.2841 108.983 39.2841C107.869 39.2841 106.852 39.0504 105.972 38.5692ZM110.687 36.7407C111.196 36.452 111.595 36.0395 111.883 35.5309C112.172 35.0084 112.323 34.4173 112.323 33.7573C112.323 33.0974 112.172 32.5062 111.883 31.9838C111.595 31.4614 111.196 31.0627 110.687 30.774C110.179 30.4852 109.601 30.334 108.969 30.334C108.336 30.334 107.773 30.4852 107.25 30.774C106.742 31.0627 106.343 31.4751 106.054 31.9838C105.765 32.5062 105.614 33.0974 105.614 33.7573C105.614 34.4173 105.765 35.0084 106.054 35.5309C106.343 36.0533 106.742 36.452 107.25 36.7407C107.759 37.0294 108.336 37.1807 108.969 37.1807C109.601 37.1807 110.179 37.0294 110.687 36.7407Z" fill="white"/>
<path d="M123.514 39.1054L121.452 36.122H121.328H119.17V39.1054H116.695V28.3955H121.328C122.277 28.3955 123.102 28.5605 123.803 28.8629C124.504 29.1791 125.041 29.6328 125.412 30.2103C125.783 30.7877 125.975 31.4751 125.975 32.2725C125.975 33.0699 125.783 33.7573 125.398 34.3348C125.013 34.9122 124.477 35.3521 123.776 35.6546L126.182 39.0917H123.514V39.1054ZM122.882 30.8977C122.497 30.5815 121.933 30.4165 121.191 30.4165H119.17V34.1423H121.191C121.933 34.1423 122.497 33.9773 122.882 33.6473C123.267 33.3174 123.459 32.8637 123.459 32.2725C123.473 31.6813 123.267 31.2139 122.882 30.8977Z" fill="white"/>
<path d="M137.744 28.3955V39.1054H135.709L130.375 32.6025V39.1054H127.928V28.3955H129.976L135.297 34.8984V28.3955H137.744Z" fill="white"/>
</svg>
