<svg width="100" height="33" viewBox="0 0 100 33" fill="none" xmlns="http://www.w3.org/2000/svg">
<path opacity="0.6" d="M1.77924 22.7732C3.42161 29.5513 12.3231 32.8542 22.631 31.8107C35.8426 30.4769 52.4478 18.6173 53.0829 10.351C53.582 3.91765 44.2087 0.442359 29.3457 2.36602C14.891 4.24431 -0.25331 14.3708 1.77924 22.7732Z" fill="#FBDA33"/>
<path opacity="0.6" d="M53.6818 18.2362C54.0447 11.2675 46.459 5.56002 36.2872 3.60914C23.248 1.11382 3.94788 7.72868 0.971646 15.4596C-1.34219 21.4847 6.64282 27.4916 21.4332 29.9052C35.8244 32.2463 53.2281 26.8745 53.6818 18.2362Z" fill="#F7A92C"/>
<path opacity="0.6" d="M49.2537 28.4171C53.6273 22.8095 51.0957 17.3742 42.6932 10.3601C31.9316 1.37697 13.1487 -2.59739 6.44312 3.01934C1.21657 7.40202 0.635842 15.1965 13.0761 24.9963C25.1625 34.5238 45.116 33.7163 49.2537 28.4171Z" fill="#FBDA33"/>
<path d="M68.2361 8.4818V15.5503H66.6028V12.6558H63.3906V15.5503H61.7573V8.4818H63.3906V11.2675H66.6028V8.4818H68.2361Z" fill="#434A61"/>
<path d="M71.3485 15.1965C70.7587 14.8789 70.2959 14.4433 69.9693 13.8898C69.6335 13.3363 69.4702 12.7102 69.4702 12.0206C69.4702 11.331 69.6335 10.7049 69.9693 10.1514C70.305 9.59789 70.7587 9.16234 71.3485 8.84476C71.9383 8.52717 72.6007 8.37292 73.3357 8.37292C74.0707 8.37292 74.724 8.52717 75.3138 8.84476C75.9036 9.16234 76.3573 9.59789 76.693 10.1514C77.0288 10.7049 77.2012 11.331 77.2012 12.0206C77.2012 12.7102 77.0288 13.3363 76.693 13.8898C76.3573 14.4433 75.8945 14.8789 75.3138 15.1965C74.724 15.5141 74.0707 15.6683 73.3357 15.6683C72.5916 15.6683 71.9383 15.5141 71.3485 15.1965ZM74.4608 13.9896C74.7966 13.7991 75.0597 13.5269 75.2503 13.1911C75.4408 12.8463 75.5406 12.4562 75.5406 12.0206C75.5406 11.5851 75.4408 11.1949 75.2503 10.8501C75.0597 10.5053 74.7966 10.2421 74.4608 10.0516C74.1251 9.86103 73.744 9.76122 73.3266 9.76122C72.9092 9.76122 72.5372 9.86103 72.1924 10.0516C71.8566 10.2421 71.5935 10.5144 71.403 10.8501C71.2124 11.1949 71.1126 11.5851 71.1126 12.0206C71.1126 12.4562 71.2124 12.8463 71.403 13.1911C71.5935 13.5359 71.8566 13.7991 72.1924 13.9896C72.5281 14.1802 72.9092 14.28 73.3266 14.28C73.744 14.28 74.1251 14.1802 74.4608 13.9896Z" fill="#434A61"/>
<path d="M84.9048 8.4818V15.5503H83.5618L80.0412 11.2584V15.5503H78.426V8.4818H79.778L83.2896 12.7737V8.4818H84.9048Z" fill="#434A61"/>
<path d="M92.046 14.2346V15.5503H86.5745V8.4818H91.9099V9.79751H88.1987V11.331H91.4744V12.6013H88.1987V14.2346H92.046Z" fill="#434A61"/>
<path d="M96.6736 13.046V15.5504H95.0403V13.0278L92.3091 8.49088H94.0422L95.9295 11.6304L97.8169 8.49088H99.423L96.6736 13.046Z" fill="#434A61"/>
<path d="M63.182 25.2957C62.6012 24.9872 62.1385 24.5516 61.8118 23.9981C61.4761 23.4446 61.3127 22.8185 61.3127 22.1198C61.3127 21.4211 61.4761 20.7951 61.8118 20.2415C62.1475 19.688 62.6012 19.2525 63.182 18.9349C63.7627 18.6264 64.416 18.4631 65.1419 18.4631C65.7499 18.4631 66.3034 18.572 66.8024 18.7897C67.2924 19.0075 67.7098 19.316 68.0456 19.7153L66.993 20.6862C66.5121 20.1327 65.9223 19.8604 65.2145 19.8604C64.779 19.8604 64.3888 19.9603 64.044 20.1508C63.6992 20.3414 63.436 20.6136 63.2455 20.9493C63.0549 21.2941 62.9551 21.6843 62.9551 22.1198C62.9551 22.5554 63.0549 22.9456 63.2455 23.2904C63.436 23.6352 63.7082 23.8983 64.044 24.0889C64.3797 24.2794 64.779 24.3792 65.2145 24.3792C65.9223 24.3792 66.5121 24.0979 66.993 23.5444L68.0456 24.5153C67.7098 24.9237 67.2924 25.2412 66.7934 25.4499C66.2943 25.6677 65.7408 25.7766 65.1328 25.7766C64.416 25.7675 63.7627 25.6133 63.182 25.2957Z" fill="#434A61"/>
<path d="M70.441 25.2957C69.8512 24.9781 69.3885 24.5426 69.0618 23.9891C68.7261 23.4355 68.5627 22.8094 68.5627 22.1198C68.5627 21.4302 68.7261 20.8041 69.0618 20.2506C69.3975 19.6971 69.8512 19.2616 70.441 18.944C71.0308 18.6264 71.6932 18.4721 72.4282 18.4721C73.1632 18.4721 73.8165 18.6264 74.4063 18.944C74.9961 19.2616 75.4498 19.6971 75.7856 20.2506C76.1213 20.8041 76.2937 21.4302 76.2937 22.1198C76.2937 22.8094 76.1213 23.4355 75.7856 23.9891C75.4498 24.5426 74.987 24.9781 74.4063 25.2957C73.8165 25.6133 73.1632 25.7675 72.4282 25.7675C71.6932 25.7675 71.0218 25.6133 70.441 25.2957ZM73.5534 24.0889C73.8891 23.8983 74.1523 23.6261 74.3428 23.2904C74.5334 22.9456 74.6332 22.5554 74.6332 22.1198C74.6332 21.6843 74.5334 21.2941 74.3428 20.9493C74.1523 20.6045 73.8891 20.3414 73.5534 20.1508C73.2176 19.9603 72.8365 19.8604 72.4191 19.8604C72.0017 19.8604 71.6297 19.9603 71.2849 20.1508C70.9492 20.3414 70.686 20.6136 70.4955 20.9493C70.3049 21.2941 70.2051 21.6843 70.2051 22.1198C70.2051 22.5554 70.3049 22.9456 70.4955 23.2904C70.686 23.6352 70.9492 23.8983 71.2849 24.0889C71.6206 24.2794 72.0017 24.3792 72.4191 24.3792C72.8365 24.3792 73.2176 24.2794 73.5534 24.0889Z" fill="#434A61"/>
<path d="M82.0192 25.6496L80.6581 23.6805H80.5765H79.1519V25.6496H77.5186V18.581H80.5765C81.2025 18.581 81.747 18.6899 82.2097 18.8895C82.6725 19.0982 83.0264 19.3977 83.2714 19.7788C83.5164 20.1599 83.6434 20.6136 83.6434 21.1399C83.6434 21.6661 83.5164 22.1198 83.2623 22.5009C83.0082 22.882 82.6544 23.1724 82.1916 23.372L83.7795 25.6405H82.0192V25.6496ZM81.6018 20.2325C81.3477 20.0238 80.9757 19.9149 80.4857 19.9149H79.1519V22.3739H80.4857C80.9757 22.3739 81.3477 22.265 81.6018 22.0472C81.8559 21.8295 81.9829 21.53 81.9829 21.1399C81.992 20.7497 81.8559 20.4412 81.6018 20.2325Z" fill="#434A61"/>
<path d="M91.4109 18.581V25.6496H90.0679L86.5473 21.3576V25.6496H84.9321V18.581H86.2841L89.7957 22.873V18.581H91.4109Z" fill="#434A61"/>
</svg>
