<svg width="1920" height="1020" viewBox="0 0 1920 1020" fill="none" xmlns="http://www.w3.org/2000/svg">
<g opacity="0.3">
<path opacity="0.6" d="M-245.446 601.023C-55.5152 757.213 265.31 661.631 533.653 413.769C877.66 96.1883 1094.22 -589.909 936.929 -836.298C814.648 -1028.16 476.873 -927.432 98.8308 -558.232C-268.667 -198.964 -480.793 407.336 -245.446 601.023Z" fill="#FBDA33"/>
<path opacity="0.6" d="M1120.92 -626.8C983.453 -830.858 648.741 -830.917 320.773 -670.315C-99.529 -464.287 -503.18 131.139 -423.201 412.058C-360.71 630.87 -8.40226 630.905 459.516 385.461C914.646 146.432 1291.2 -373.773 1120.92 -626.8Z" fill="#F7A92C"/>
<path opacity="0.6" d="M1211.9 -246.071C1216.29 -496.775 1029.77 -596.277 644.353 -615.847C150.73 -640.901 -462.767 -354.821 -532.681 -54.4391C-587.072 179.824 -438.246 411.764 119.986 424.254C662.477 436.573 1207.61 -9.06057 1211.9 -246.071Z" fill="#FBDA33"/>
</g>
<g opacity="0.3">
<path opacity="0.6" d="M985.554 1740.02C1175.48 1896.21 1496.31 1800.63 1764.65 1552.77C2108.66 1235.19 2325.22 549.091 2167.93 302.702C2045.65 110.845 1707.87 211.568 1329.83 580.768C962.333 940.036 750.207 1546.34 985.554 1740.02Z" fill="#FBDA33"/>
<path opacity="0.6" d="M2351.92 512.2C2214.45 308.142 1879.74 308.083 1551.77 468.685C1131.47 674.713 727.82 1270.14 807.799 1551.06C870.29 1769.87 1222.6 1769.9 1690.52 1524.46C2145.65 1285.43 2522.2 765.227 2351.92 512.2Z" fill="#F7A92C"/>
<path opacity="0.6" d="M2442.9 892.929C2447.29 642.225 2260.77 542.723 1875.35 523.153C1381.73 498.099 768.233 784.179 698.319 1084.56C643.928 1318.82 792.754 1550.76 1350.99 1563.25C1893.48 1575.57 2438.61 1129.94 2442.9 892.929Z" fill="#FBDA33"/>
</g>
</svg>
