<svg width="60" height="60" viewBox="0 0 60 60" fill="none" xmlns="http://www.w3.org/2000/svg">
<path d="M30 5.625C25.1791 5.625 20.4664 7.05457 16.458 9.73293C12.4495 12.4113 9.32533 16.2181 7.48045 20.6721C5.63556 25.126 5.15285 30.027 6.09337 34.7553C7.03388 39.4836 9.35538 43.8268 12.7643 47.2357C16.1732 50.6446 20.5164 52.9661 25.2447 53.9066C29.973 54.8472 34.874 54.3644 39.3279 52.5196C43.7819 50.6747 47.5887 47.5505 50.2671 43.542C52.9454 39.5336 54.375 34.8209 54.375 30C54.3682 23.5374 51.7979 17.3415 47.2282 12.7718C42.6585 8.20209 36.4626 5.63182 30 5.625ZM30 45C29.4438 45 28.9 44.835 28.4375 44.526C27.975 44.217 27.6145 43.7777 27.4016 43.2638C27.1887 42.7499 27.133 42.1844 27.2416 41.6388C27.3501 41.0932 27.6179 40.5921 28.0113 40.1988C28.4046 39.8054 28.9057 39.5376 29.4513 39.429C29.9969 39.3205 30.5624 39.3762 31.0763 39.5891C31.5902 39.802 32.0295 40.1624 32.3385 40.625C32.6476 41.0875 32.8125 41.6312 32.8125 42.1875C32.8125 42.9334 32.5162 43.6488 31.9887 44.1762C31.4613 44.7037 30.7459 45 30 45ZM31.875 33.5812V33.75C31.875 34.2473 31.6775 34.7242 31.3258 35.0758C30.9742 35.4275 30.4973 35.625 30 35.625C29.5027 35.625 29.0258 35.4275 28.6742 35.0758C28.3226 34.7242 28.125 34.2473 28.125 33.75V31.875C28.125 31.3777 28.3226 30.9008 28.6742 30.5492C29.0258 30.1975 29.5027 30 30 30C33.1008 30 35.625 27.8906 35.625 25.3125C35.625 22.7344 33.1008 20.625 30 20.625C26.8992 20.625 24.375 22.7344 24.375 25.3125V26.25C24.375 26.7473 24.1775 27.2242 23.8258 27.5758C23.4742 27.9275 22.9973 28.125 22.5 28.125C22.0027 28.125 21.5258 27.9275 21.1742 27.5758C20.8226 27.2242 20.625 26.7473 20.625 26.25V25.3125C20.625 20.6602 24.8297 16.875 30 16.875C35.1703 16.875 39.375 20.6602 39.375 25.3125C39.375 29.3859 36.15 32.7961 31.875 33.5812Z" fill="#F0C52C"/>
</svg>
