<svg width="60" height="60" viewBox="0 0 60 60" fill="none" xmlns="http://www.w3.org/2000/svg">
<path d="M55.4986 44.0836L35.0025 8.48909C34.4903 7.61704 33.7592 6.89398 32.8814 6.39158C32.0037 5.88918 31.0099 5.62488 29.9986 5.62488C28.9873 5.62488 27.9935 5.88918 27.1158 6.39158C26.2381 6.89398 25.5069 7.61704 24.9947 8.48909L4.49861 44.0836C4.0058 44.9271 3.74609 45.8864 3.74609 46.8633C3.74609 47.8402 4.0058 48.7995 4.49861 49.643C5.00423 50.5203 5.73416 51.2473 6.61352 51.7494C7.49287 52.2515 8.48998 52.5105 9.50251 52.5H50.4947C51.5064 52.5097 52.5026 52.2502 53.381 51.7482C54.2595 51.2462 54.9887 50.5196 55.4939 49.643C55.9874 48.7999 56.248 47.8408 56.2488 46.8639C56.2496 45.8871 55.9907 44.9275 55.4986 44.0836ZM28.1236 24.375C28.1236 23.8778 28.3212 23.4008 28.6728 23.0492C29.0244 22.6976 29.5013 22.5 29.9986 22.5C30.4959 22.5 30.9728 22.6976 31.3244 23.0492C31.6761 23.4008 31.8736 23.8778 31.8736 24.375V33.75C31.8736 34.2473 31.6761 34.7242 31.3244 35.0759C30.9728 35.4275 30.4959 35.625 29.9986 35.625C29.5013 35.625 29.0244 35.4275 28.6728 35.0759C28.3212 34.7242 28.1236 34.2473 28.1236 33.75V24.375ZM29.9986 45C29.4423 45 28.8986 44.8351 28.4361 44.526C27.9736 44.217 27.6131 43.7777 27.4002 43.2638C27.1873 42.7499 27.1316 42.1844 27.2401 41.6388C27.3487 41.0933 27.6165 40.5921 28.0099 40.1988C28.4032 39.8055 28.9043 39.5376 29.4499 39.4291C29.9955 39.3206 30.561 39.3763 31.0749 39.5891C31.5888 39.802 32.0281 40.1625 32.3371 40.625C32.6462 41.0875 32.8111 41.6313 32.8111 42.1875C32.8111 42.9335 32.5148 43.6488 31.9873 44.1763C31.4599 44.7037 30.7445 45 29.9986 45Z" fill="#F0C52C"/>
</svg>
